<?xml version="1.0" encoding="UTF-8"?>
<svg id="Layer_2" data-name="Layer 2" xmlns="http://www.w3.org/2000/svg" viewBox="0 0 225.8 99.7">
  <defs>
    <style>
      .cls-1 {
        fill: none;
        stroke: #ed1c24;
        stroke-miterlimit: 10;
        stroke-width: 4px;
      }

      .cls-2 {
        fill: #ed1c24;
        stroke-width: 0px;
      }
    </style>
  </defs>
  <g id="Layer_3">
    <g>
      <path class="cls-1" d="M37.17,88.94c0-34.99,25.41-64.22,59.47-71.58"/>
      <path class="cls-2" d="M113.45,15.58c-7.56,3.85-16.77,10-22.23,16l3.24-13.78-6.33-12.67c6.69,4.59,17.07,8.44,25.31,10.45Z"/>
    </g>
    <g>
      <path class="cls-1" d="M2,99.7C2,61.85,24.7,30.14,55.33,21.53"/>
      <path class="cls-2" d="M72.07,19.23c-7.42,4.11-16.42,10.56-21.67,16.75l2.77-13.89-6.75-12.44c6.84,4.36,17.35,7.86,25.65,9.58Z"/>
    </g>
    <g>
      <path class="cls-1" d="M116.67,66.42c0-27.1,39.95-49.53,92.23-53.55"/>
      <path class="cls-2" d="M225.8,12.23c-7.81,3.3-17.44,8.78-23.31,14.38l4.21-13.52-5.41-13.08c6.35,5.05,16.43,9.64,24.51,12.23Z"/>
    </g>
    <g>
      <path class="cls-1" d="M73.14,76.18c0-30.79,31.69-56.38,73.64-61.87"/>
      <path class="cls-2" d="M163.66,13.23c-7.72,3.5-17.21,9.22-22.93,14.97l3.87-13.62-5.74-12.94c6.48,4.89,16.67,9.21,24.81,11.59Z"/>
    </g>
  </g>
</svg>