<?xml version="1.0" encoding="UTF-8"?>
<svg id="Layer_1" data-name="Layer 1" xmlns="http://www.w3.org/2000/svg" viewBox="0 0 360 360">
  <defs>
    <style>
      .cls-1 {
        fill: none;
        stroke-width: 12px;
      }

      .cls-1, .cls-2 {
        stroke: #fbb040;
      }

      .cls-1, .cls-3 {
        stroke-miterlimit: 10;
      }

      .cls-4 {
        fill: #fff;
        stroke: #fff;
        stroke-width: 14px;
      }

      .cls-2, .cls-5 {
        fill: #fbb040;
      }

      .cls-3 {
        fill: #3c2415;
        opacity: .67;
        stroke: #231f20;
      }

      .cls-6 {
        fill: #231f20;
      }

      .cls-6, .cls-5 {
        stroke-width: 0px;
      }
    </style>
  </defs>
  <rect class="cls-3" x=".17" y="-1" width="360.15" height="360.95"/>
  <polygon class="cls-6" points="360.33 359.95 .17 359.95 .17 23.31 132.45 23.31 360.33 359.95"/>
  <line class="cls-4" x1="152.58" y1="360" x2="152.58" y2="301.37"/>
  <line class="cls-4" x1="132.45" y1="360" x2="132.45" y2="301.37"/>
  <line class="cls-4" x1="113.09" y1="360" x2="113.09" y2="301.37"/>
  <line class="cls-4" x1="72.82" y1="360" x2="72.82" y2="301.37"/>
  <line class="cls-4" x1="52.69" y1="360" x2="52.69" y2="301.37"/>
  <line class="cls-4" x1="16.19" y1="360" x2="16.19" y2="301.37"/>
  <line class="cls-4" x1="295.08" y1="360" x2="295.08" y2="301.37"/>
  <line class="cls-4" x1="274.95" y1="360" x2="274.95" y2="301.37"/>
  <line class="cls-4" x1="255.59" y1="360" x2="255.59" y2="301.37"/>
  <line class="cls-4" x1="215.32" y1="360" x2="215.32" y2="301.37"/>
  <line class="cls-4" x1="195.19" y1="360" x2="195.19" y2="301.37"/>
  <g>
    <line class="cls-1" y1="29.31" x2="324.29" y2="29.31"/>
    <path class="cls-5" d="m360.5,29.31c-17.04,6.32-38.18,17.11-51.28,28.54l10.32-28.54-10.32-28.53c13.1,11.43,34.25,22.21,51.28,28.53Z"/>
  </g>
  <g>
    <path class="cls-2" d="m53.97,283.76c.4-6.6.8-16.4.8-25v-117h17.4v60.8h.4c6.2-10.8,17.4-17.8,33-17.8,24,0,41,20,40.8,49.4,0,34.6-21.8,51.8-43.4,51.8-14,0-25.2-5.4-32.4-18.2h-.6l-.8,16h-15.2Zm18.2-38.8c0,2.2.4,4.4.8,6.4,3.4,12.2,13.6,20.6,26.4,20.6,18.4,0,29.4-15,29.4-37.2,0-19.4-10-36-28.8-36-12,0-23.2,8.2-26.8,21.6-.4,2-1,4.4-1,7.2v17.4Z"/>
    <path class="cls-2" d="m175.25,95.04h24.36v91h.84c5.04-7.28,10.08-14,14.84-20.16l57.68-70.84h30.24l-68.32,80.08,73.64,108.64h-28.84l-62.16-92.68-17.92,20.72v71.96h-24.36V95.04Z"/>
  </g>
</svg>