<svg id="svg" version="1.1" xmlns="http://www.w3.org/2000/svg" xmlns:xlink="http://www.w3.org/1999/xlink" width="400" height="187.3469387755102" viewBox="0, 0, 400,187.3469387755102"><g id="svgg"><path id="path0" d="M0.000 93.677 L 0.000 187.354 200.000 187.354 L 400.000 187.354 400.000 93.677 L 400.000 0.000 200.000 0.000 L 0.000 0.000 0.000 93.677 M396.721 93.677 L 396.721 184.075 200.000 184.075 L 3.279 184.075 3.231 93.864 C 3.204 44.248,3.223 3.548,3.272 3.419 C 3.343 3.232,42.795 3.194,200.041 3.232 L 396.721 3.279 396.721 93.677 M16.342 34.333 L 16.393 37.564 189.040 37.658 L 361.686 37.752 361.733 87.073 L 361.781 136.393 361.309 136.393 C 361.050 136.393,360.692 136.312,360.513 136.212 C 360.334 136.112,359.808 135.907,359.344 135.755 C 358.367 135.436,356.547 134.788,354.286 133.955 C 353.410 133.632,351.977 133.117,351.101 132.811 C 350.225 132.505,349.340 132.183,349.133 132.095 C 348.927 132.007,348.464 131.833,348.103 131.710 C 347.742 131.586,347.279 131.414,347.073 131.328 C 346.867 131.242,346.023 130.944,345.199 130.664 C 344.375 130.385,343.553 130.081,343.372 129.990 C 342.871 129.735,343.648 131.076,344.369 131.710 C 344.427 131.761,344.918 132.393,345.460 133.115 C 346.001 133.836,346.583 134.595,346.752 134.801 C 347.731 135.991,351.734 142.203,353.272 144.918 C 353.389 145.124,353.799 145.841,354.185 146.511 C 356.092 149.827,361.218 160.003,361.218 160.473 C 361.218 160.516,361.439 161.039,361.709 161.634 C 361.979 162.230,362.316 162.991,362.458 163.326 C 362.600 163.660,362.843 164.230,362.998 164.590 C 363.553 165.886,363.792 166.481,364.203 167.588 C 364.432 168.206,364.698 168.858,364.792 169.037 C 364.887 169.216,364.965 169.507,364.965 169.684 C 364.965 170.362,365.393 169.532,366.634 166.443 C 367.334 164.703,368.097 162.857,368.331 162.342 C 368.564 161.827,368.923 161.026,369.129 160.562 C 370.131 158.306,370.561 157.400,372.199 154.098 C 373.854 150.762,374.803 148.950,375.828 147.166 C 376.065 146.754,376.471 146.037,376.730 145.574 C 376.989 145.110,377.510 144.225,377.886 143.607 C 378.263 142.988,378.692 142.275,378.840 142.022 C 378.989 141.770,379.384 141.159,379.719 140.666 C 380.054 140.173,380.328 139.721,380.328 139.661 C 380.328 139.457,384.538 133.491,385.013 133.021 C 385.065 132.970,385.357 132.590,385.662 132.178 C 385.967 131.766,386.451 131.176,386.737 130.867 C 387.656 129.876,387.454 129.810,385.625 130.506 C 384.927 130.771,383.977 131.112,383.513 131.264 C 383.049 131.417,382.501 131.615,382.295 131.706 C 381.968 131.849,378.075 133.254,376.487 133.802 C 376.178 133.908,375.756 134.065,375.550 134.151 C 375.121 134.329,373.325 134.966,372.084 135.381 C 371.621 135.536,371.073 135.739,370.867 135.832 C 370.122 136.167,368.803 136.542,368.665 136.458 C 368.588 136.410,368.525 112.685,368.525 83.736 L 368.525 31.101 192.408 31.101 L 16.291 31.101 16.342 34.333 M267.166 68.771 C 263.201 68.903,260.891 69.071,256.674 69.534 C 253.789 69.850,250.226 70.362,249.601 70.549 L 249.179 70.676 249.227 111.732 L 249.274 152.787 251.616 153.019 C 260.744 153.922,272.905 154.026,278.689 153.250 C 281.142 152.921,283.931 152.462,285.152 152.187 C 285.822 152.037,286.707 151.845,287.119 151.761 C 288.490 151.483,291.677 150.478,293.208 149.840 C 293.466 149.733,293.845 149.585,294.052 149.511 C 295.160 149.114,299.660 146.798,300.764 146.058 C 301.468 145.585,302.114 145.199,302.200 145.199 C 302.287 145.199,302.386 145.136,302.420 145.059 C 302.454 144.981,303.092 144.431,303.838 143.835 C 306.905 141.384,310.214 137.485,312.109 134.086 C 314.344 130.080,315.645 126.789,316.826 122.155 C 318.059 117.311,318.622 109.713,318.116 104.731 C 317.461 98.281,316.400 94.197,314.124 89.361 C 313.564 88.173,311.815 85.224,311.323 84.639 C 311.098 84.371,310.745 83.917,310.539 83.629 C 309.143 81.679,305.554 78.187,303.580 76.859 C 303.183 76.592,302.829 76.304,302.795 76.219 C 302.760 76.135,302.656 76.066,302.562 76.066 C 302.469 76.066,301.823 75.703,301.126 75.260 C 297.268 72.804,291.005 70.576,285.527 69.709 C 284.857 69.603,283.803 69.434,283.185 69.334 C 279.925 68.803,273.227 68.568,267.166 68.771 M278.689 78.889 C 280.994 79.183,282.484 79.447,284.122 79.853 C 284.946 80.058,285.853 80.268,286.138 80.321 C 286.423 80.374,286.702 80.492,286.758 80.584 C 286.814 80.675,287.025 80.749,287.227 80.749 C 287.428 80.749,287.739 80.825,287.918 80.917 C 288.097 81.009,289.044 81.435,290.023 81.863 C 295.944 84.454,300.848 89.535,303.145 95.457 C 305.122 100.553,305.886 106.310,305.444 112.787 C 305.111 117.665,304.646 120.212,303.391 124.028 C 302.946 125.382,300.980 129.644,300.712 129.836 C 300.640 129.888,300.534 130.060,300.476 130.218 C 300.088 131.275,297.030 134.777,295.114 136.360 C 293.123 138.004,289.098 140.515,288.454 140.515 C 288.387 140.515,287.976 140.676,287.539 140.872 C 284.985 142.019,281.118 142.952,276.577 143.516 C 274.498 143.775,264.599 143.773,262.857 143.514 C 262.187 143.415,261.534 143.331,261.405 143.329 C 261.217 143.326,261.179 136.885,261.217 111.436 L 261.265 79.547 261.920 79.396 C 265.212 78.638,274.517 78.357,278.689 78.889 " stroke="none" fill="#fab244" fill-rule="evenodd"></path><path id="path1" d="M3.597 3.597 C 3.269 3.925,3.269 183.429,3.597 183.756 C 3.925 184.084,396.075 184.084,396.403 183.756 C 396.731 183.429,396.731 3.925,396.403 3.597 C 396.075 3.269,3.925 3.269,3.597 3.597 M396.253 93.677 L 396.253 183.607 200.000 183.607 L 3.747 183.607 3.747 93.677 L 3.747 3.747 200.000 3.747 L 396.253 3.747 396.253 93.677 M16.249 30.669 C 15.944 30.748,15.921 31.042,15.968 34.347 L 16.019 37.939 188.759 37.939 L 361.499 37.939 188.806 37.892 L 16.112 37.845 16.112 34.379 L 16.112 30.913 192.365 30.960 L 368.618 31.007 368.718 34.473 L 368.818 37.939 368.859 34.433 C 368.897 31.136,368.878 30.915,368.537 30.733 C 368.177 30.540,16.988 30.476,16.249 30.669 M368.618 87.104 C 368.618 130.646,368.650 136.277,368.899 136.345 C 369.107 136.402,369.119 136.379,368.946 136.256 C 368.761 136.125,368.703 125.979,368.665 87.015 L 368.617 37.939 368.618 87.104 M269.133 68.378 C 267.340 68.455,268.045 68.488,271.811 68.503 C 274.623 68.514,276.899 68.504,276.869 68.480 C 276.719 68.358,271.262 68.286,269.133 68.378 M261.290 68.717 C 261.241 68.797,261.805 68.835,262.544 68.801 C 264.507 68.711,264.672 68.618,262.915 68.593 C 262.071 68.581,261.340 68.637,261.290 68.717 M278.798 68.640 C 278.841 68.677,279.418 68.755,280.081 68.812 C 280.834 68.878,281.185 68.853,281.018 68.747 C 280.770 68.590,278.623 68.486,278.798 68.640 M257.080 69.110 C 256.934 69.203,257.245 69.235,257.830 69.186 C 259.202 69.073,259.389 68.978,258.267 68.964 C 257.752 68.957,257.218 69.023,257.080 69.110 M282.732 69.014 C 282.775 69.051,283.190 69.136,283.653 69.204 C 284.243 69.289,284.412 69.270,284.215 69.139 C 283.963 68.971,282.544 68.851,282.732 69.014 M253.770 69.509 C 253.539 69.609,253.860 69.630,254.614 69.563 C 255.283 69.504,255.867 69.425,255.909 69.388 C 256.075 69.245,254.126 69.356,253.770 69.509 M284.965 69.395 C 284.965 69.436,285.295 69.500,285.699 69.539 C 286.102 69.577,286.392 69.544,286.343 69.465 C 286.254 69.321,284.965 69.255,284.965 69.395 M251.148 69.876 C 250.928 69.966,251.276 69.989,251.991 69.931 C 252.660 69.877,253.244 69.801,253.286 69.764 C 253.444 69.626,251.510 69.727,251.148 69.876 M286.854 69.763 C 286.897 69.801,287.307 69.879,287.765 69.938 C 288.305 70.007,288.503 69.984,288.327 69.873 C 288.077 69.715,286.678 69.611,286.854 69.763 M249.111 70.218 C 249.060 70.300,249.330 70.336,249.709 70.299 C 250.746 70.196,250.869 70.102,249.988 70.085 C 249.556 70.077,249.161 70.137,249.111 70.218 M289.555 70.356 C 290.780 70.696,291.299 70.685,290.211 70.342 C 289.747 70.195,289.199 70.080,288.993 70.086 C 288.787 70.091,289.040 70.213,289.555 70.356 M248.898 111.663 C 248.898 134.281,248.919 143.534,248.946 132.225 C 248.973 120.916,248.973 102.410,248.946 91.101 C 248.919 79.792,248.898 89.044,248.898 111.663 M293.677 71.569 C 294.193 71.791,294.376 71.791,294.239 71.569 C 294.175 71.466,293.938 71.388,293.713 71.395 C 293.317 71.408,293.316 71.414,293.677 71.569 M300.056 74.349 C 300.344 74.601,302.014 75.527,302.014 75.434 C 302.014 75.326,300.180 74.192,300.007 74.192 C 299.936 74.192,299.958 74.262,300.056 74.349 M303.213 76.293 C 303.511 76.528,304.228 77.095,304.805 77.551 C 305.478 78.083,305.687 78.194,305.386 77.858 C 305.129 77.571,304.412 77.004,303.794 76.600 C 303.176 76.195,302.914 76.057,303.213 76.293 M271.616 78.827 C 272.157 78.864,273.042 78.864,273.583 78.827 C 274.124 78.789,273.681 78.758,272.600 78.758 C 271.518 78.758,271.075 78.789,271.616 78.827 M266.136 79.063 L 265.012 79.188 266.546 79.219 C 267.403 79.237,268.132 79.168,268.197 79.063 C 268.321 78.862,267.956 78.862,266.136 79.063 M276.534 79.056 C 276.786 79.225,279.518 79.348,279.329 79.182 C 279.286 79.145,278.576 79.058,277.752 78.991 C 276.722 78.906,276.341 78.927,276.534 79.056 M308.109 80.548 C 308.834 81.328,309.793 82.389,310.240 82.904 C 310.753 83.495,310.890 83.600,310.612 83.189 C 310.369 82.830,309.411 81.770,308.481 80.833 C 307.138 79.478,307.062 79.419,308.109 80.548 M263.044 79.438 L 262.389 79.576 263.044 79.598 C 263.405 79.610,263.827 79.538,263.981 79.438 C 264.322 79.218,264.091 79.218,263.044 79.438 M280.281 79.428 C 280.436 79.533,280.808 79.621,281.109 79.622 C 281.828 79.626,281.679 79.518,280.749 79.362 C 280.212 79.272,280.080 79.291,280.281 79.428 M261.296 79.750 C 261.042 80.004,261.151 143.144,261.405 143.225 C 261.907 143.385,271.288 143.615,272.881 143.506 C 274.356 143.405,274.227 143.390,271.850 143.391 C 270.356 143.392,267.384 143.325,265.246 143.242 L 261.358 143.092 261.358 111.468 C 261.358 86.344,261.406 79.824,261.593 79.749 C 261.723 79.697,261.737 79.648,261.624 79.640 C 261.512 79.632,261.365 79.681,261.296 79.750 M282.529 79.804 C 282.684 79.909,282.972 79.996,283.169 79.997 C 283.649 80.001,283.499 79.894,282.810 79.740 C 282.400 79.648,282.324 79.665,282.529 79.804 M286.089 80.741 C 286.244 80.845,286.532 80.932,286.729 80.934 C 287.208 80.938,287.059 80.830,286.370 80.676 C 285.960 80.585,285.884 80.602,286.089 80.741 M290.788 82.509 C 290.999 82.708,292.325 83.382,292.385 83.321 C 292.423 83.283,292.110 83.068,291.690 82.844 C 290.993 82.472,290.590 82.322,290.788 82.509 M292.646 83.510 C 292.646 83.693,293.402 84.178,293.514 84.066 C 293.558 84.022,293.381 83.845,293.121 83.674 C 292.860 83.504,292.646 83.430,292.646 83.510 M311.775 85.021 C 312.214 85.657,312.609 86.142,312.652 86.099 C 312.753 85.998,311.691 84.456,311.289 84.123 C 311.118 83.980,311.336 84.384,311.775 85.021 M293.770 84.179 C 293.770 84.221,294.255 84.618,294.848 85.061 C 295.440 85.504,295.803 85.719,295.655 85.540 C 295.376 85.204,293.770 84.045,293.770 84.179 M296.208 86.089 C 296.447 86.463,297.705 87.605,297.705 87.448 C 297.705 87.332,297.146 86.743,296.505 86.183 C 296.085 85.815,296.021 85.795,296.208 86.089 M313.068 87.002 C 313.068 87.086,313.219 87.379,313.404 87.653 C 313.589 87.926,313.940 88.551,314.184 89.041 C 314.427 89.531,314.657 89.902,314.695 89.864 C 314.772 89.787,313.795 87.887,313.357 87.262 C 313.198 87.034,313.068 86.918,313.068 87.002 M298.642 88.618 C 299.073 89.133,299.468 89.555,299.520 89.555 C 299.571 89.555,299.260 89.133,298.829 88.618 C 298.398 88.103,298.003 87.681,297.951 87.681 C 297.900 87.681,298.210 88.103,298.642 88.618 M300.533 91.192 C 301.548 92.747,301.835 93.115,301.449 92.365 C 301.123 91.733,299.772 89.742,299.669 89.742 C 299.623 89.742,300.012 90.395,300.533 91.192 M315.515 92.029 C 315.509 92.101,315.598 92.396,315.714 92.684 C 316.113 93.676,316.214 93.960,316.503 94.895 C 316.719 95.596,316.795 95.705,316.803 95.327 C 316.810 95.050,316.731 94.771,316.628 94.707 C 316.525 94.644,316.440 94.427,316.440 94.225 C 316.440 94.024,316.366 93.713,316.275 93.534 C 316.185 93.355,315.979 92.913,315.819 92.553 C 315.659 92.192,315.522 91.956,315.515 92.029 M302.501 94.707 C 302.783 95.606,303.274 96.873,303.383 96.982 C 303.582 97.181,303.211 96.055,302.786 95.169 C 302.565 94.709,302.437 94.501,302.501 94.707 M316.828 96.055 C 316.870 96.541,317.163 96.953,317.177 96.545 C 317.184 96.319,317.105 96.082,317.002 96.019 C 316.899 95.955,316.821 95.971,316.828 96.055 M317.302 97.923 C 317.475 98.641,317.564 98.709,317.564 98.122 C 317.564 97.853,317.477 97.579,317.370 97.513 C 317.242 97.434,317.219 97.575,317.302 97.923 M317.729 100.088 C 317.816 100.608,317.842 100.634,317.901 100.259 C 317.939 100.016,317.894 99.739,317.799 99.645 C 317.695 99.541,317.668 99.715,317.729 100.088 M304.450 101.347 C 304.450 101.650,304.516 101.939,304.598 101.990 C 304.679 102.040,304.712 101.792,304.671 101.439 C 304.579 100.651,304.450 100.598,304.450 101.347 M317.990 101.546 C 317.990 102.009,318.027 102.199,318.071 101.967 C 318.116 101.735,318.116 101.356,318.071 101.124 C 318.027 100.892,317.990 101.082,317.990 101.546 M304.838 103.716 C 304.845 104.222,304.927 104.806,305.019 105.012 C 305.128 105.253,305.148 104.954,305.075 104.169 C 304.938 102.688,304.820 102.463,304.838 103.716 M318.356 109.040 C 318.330 112.183,318.270 115.091,318.221 115.504 L 318.132 116.253 318.319 115.523 C 318.430 115.092,318.485 112.453,318.454 109.060 L 318.402 103.326 318.356 109.040 M305.279 109.602 C 305.279 111.920,305.306 112.869,305.339 111.710 C 305.372 110.550,305.372 108.653,305.339 107.494 C 305.306 106.335,305.279 107.283,305.279 109.602 M304.952 114.357 C 304.882 114.541,304.835 115.169,304.848 115.753 L 304.872 116.815 305.032 115.597 C 305.201 114.316,305.168 113.797,304.952 114.357 M317.990 117.096 C 317.990 117.560,318.027 117.749,318.071 117.518 C 318.116 117.286,318.116 116.906,318.071 116.674 C 318.027 116.443,317.990 116.632,317.990 117.096 M304.523 117.738 C 304.466 117.885,304.451 118.201,304.490 118.441 C 304.541 118.761,304.585 118.690,304.654 118.173 C 304.752 117.446,304.701 117.274,304.523 117.738 M317.777 118.439 C 317.763 118.611,317.697 118.906,317.631 119.095 C 317.537 119.360,317.562 119.389,317.740 119.225 C 317.867 119.108,317.933 118.813,317.887 118.570 C 317.841 118.326,317.791 118.267,317.777 118.439 M317.399 120.500 C 317.387 120.672,317.329 120.967,317.269 121.156 C 317.167 121.481,317.173 121.481,317.376 121.165 C 317.493 120.982,317.552 120.686,317.505 120.509 C 317.429 120.219,317.418 120.218,317.399 120.500 M303.535 122.471 C 303.523 122.697,303.429 122.934,303.326 122.998 C 303.222 123.061,303.138 123.302,303.138 123.533 C 303.138 123.764,303.046 124.045,302.933 124.158 C 302.821 124.271,302.769 124.520,302.818 124.711 C 302.893 125.004,302.911 124.994,302.929 124.648 C 302.941 124.422,303.035 124.185,303.138 124.122 C 303.241 124.058,303.326 123.817,303.326 123.586 C 303.326 123.355,303.418 123.074,303.530 122.961 C 303.643 122.849,303.695 122.600,303.646 122.409 C 303.570 122.116,303.553 122.125,303.535 122.471 M316.605 123.800 C 316.544 124.172,316.571 124.347,316.675 124.243 C 316.769 124.149,316.815 123.872,316.777 123.628 C 316.718 123.253,316.692 123.280,316.605 123.800 M316.275 125.001 C 316.263 125.278,316.169 125.557,316.066 125.621 C 315.963 125.684,315.885 125.921,315.893 126.147 C 315.902 126.406,315.942 126.454,316.000 126.276 C 316.051 126.122,316.179 125.817,316.285 125.598 C 316.391 125.380,316.437 125.043,316.387 124.849 C 316.322 124.597,316.290 124.640,316.275 125.001 M387.073 129.602 L 386.604 129.865 387.119 129.753 C 387.529 129.665,387.635 129.710,387.638 129.973 C 387.640 130.256,387.667 130.263,387.822 130.023 C 388.207 129.428,387.794 129.196,387.073 129.602 M342.482 129.722 C 342.482 130.023,343.620 131.498,343.863 131.513 C 343.952 131.518,343.720 131.185,343.347 130.772 C 342.336 129.653,342.453 129.396,343.729 129.930 C 344.099 130.084,344.497 130.206,344.613 130.200 C 344.927 130.185,343.193 129.484,342.810 129.472 C 342.630 129.466,342.482 129.579,342.482 129.722 M386.690 131.194 C 386.342 131.632,386.205 131.872,386.386 131.726 C 386.727 131.452,387.530 130.398,387.398 130.398 C 387.356 130.398,387.038 130.756,386.690 131.194 M347.073 131.148 C 347.588 131.369,347.772 131.369,347.635 131.148 C 347.571 131.044,347.334 130.966,347.108 130.973 C 346.713 130.986,346.711 130.992,347.073 131.148 M313.480 131.995 C 313.256 132.456,313.112 132.834,313.160 132.834 C 313.287 132.834,314.044 131.312,313.959 131.227 C 313.920 131.188,313.705 131.533,313.480 131.995 M381.724 131.490 C 381.626 131.575,381.187 131.757,380.748 131.895 C 380.310 132.032,379.991 132.185,380.040 132.233 C 380.120 132.313,380.689 132.136,381.733 131.704 C 381.939 131.619,382.234 131.508,382.389 131.457 C 382.577 131.395,382.544 131.360,382.286 131.350 C 382.074 131.342,381.822 131.405,381.724 131.490 M298.509 132.406 C 297.730 133.443,294.903 136.243,294.100 136.773 C 293.714 137.028,293.398 137.304,293.397 137.386 C 293.395 137.612,294.833 136.462,296.269 135.089 C 297.449 133.961,299.354 131.710,299.129 131.710 C 299.076 131.710,298.797 132.023,298.509 132.406 M344.334 132.241 C 344.543 132.534,344.861 132.892,345.042 133.038 C 345.223 133.183,345.087 132.944,344.739 132.506 C 344.024 131.606,343.759 131.433,344.334 132.241 M349.133 131.843 C 349.340 131.893,349.588 132.009,349.686 132.102 C 349.784 132.196,349.995 132.271,350.155 132.271 C 350.314 132.270,350.203 132.143,349.908 131.989 C 349.613 131.836,349.234 131.719,349.065 131.731 C 348.849 131.747,348.870 131.780,349.133 131.843 M353.420 133.413 C 353.923 133.617,354.378 133.740,354.431 133.688 C 354.484 133.635,354.367 133.541,354.172 133.479 C 353.977 133.416,353.624 133.288,353.387 133.193 C 353.150 133.099,352.855 133.026,352.731 133.031 C 352.607 133.037,352.917 133.208,353.420 133.413 M384.185 134.412 C 383.609 135.177,383.138 135.864,383.138 135.938 C 383.138 136.012,383.570 135.491,384.097 134.781 C 384.625 134.071,385.141 133.384,385.245 133.255 C 385.348 133.126,385.387 133.021,385.332 133.021 C 385.277 133.021,384.761 133.647,384.185 134.412 M345.672 133.958 C 346.165 134.662,346.361 134.915,346.985 135.644 C 347.205 135.902,347.029 135.586,346.593 134.942 C 346.158 134.299,345.670 133.667,345.508 133.537 C 345.346 133.408,345.420 133.597,345.672 133.958 M311.422 135.562 C 310.780 136.548,310.338 137.303,310.440 137.240 C 310.621 137.127,312.066 134.967,312.492 134.170 C 312.952 133.312,312.539 133.849,311.422 135.562 M355.197 134.059 C 355.544 134.209,355.923 134.329,356.040 134.325 C 356.157 134.321,355.969 134.195,355.623 134.044 C 355.276 133.894,354.896 133.774,354.779 133.778 C 354.662 133.782,354.850 133.908,355.197 134.059 M373.770 134.426 C 373.159 134.776,373.373 134.780,374.171 134.434 C 374.517 134.283,374.674 134.160,374.520 134.159 C 374.365 134.159,374.028 134.279,373.770 134.426 M360.818 136.120 C 361.164 136.270,361.502 136.390,361.567 136.387 C 361.811 136.373,360.738 135.845,360.468 135.845 C 360.314 135.846,360.471 135.969,360.818 136.120 M347.485 136.440 C 348.547 138.099,349.848 139.968,350.014 140.070 C 350.128 140.141,349.611 139.300,348.864 138.202 C 348.116 137.104,347.466 136.206,347.420 136.206 C 347.373 136.206,347.402 136.311,347.485 136.440 M382.246 137.158 C 381.911 137.665,381.675 138.080,381.723 138.080 C 381.850 138.080,382.998 136.378,382.922 136.302 C 382.886 136.266,382.582 136.651,382.246 137.158 M292.566 137.803 C 292.368 137.953,292.243 138.113,292.288 138.159 C 292.334 138.204,292.580 138.080,292.837 137.884 C 293.093 137.687,293.218 137.527,293.115 137.528 C 293.012 137.529,292.765 137.652,292.566 137.803 M309.500 138.314 C 309.152 138.752,309.016 138.991,309.197 138.846 C 309.538 138.572,310.340 137.518,310.208 137.518 C 310.167 137.518,309.848 137.876,309.500 138.314 M291.153 138.745 C 290.297 139.349,290.591 139.340,291.482 138.735 C 291.861 138.478,292.088 138.271,291.987 138.276 C 291.886 138.281,291.511 138.492,291.153 138.745 M306.434 141.708 C 303.752 144.437,303.775 144.559,306.477 141.932 C 307.910 140.539,309.181 139.127,308.912 139.226 C 308.879 139.238,307.764 140.355,306.434 141.708 M287.494 140.515 C 287.430 140.618,287.220 140.703,287.026 140.703 C 286.832 140.703,286.624 140.781,286.565 140.878 C 286.439 141.081,287.378 140.843,287.902 140.538 C 288.207 140.361,288.209 140.339,287.927 140.334 C 287.753 140.330,287.558 140.412,287.494 140.515 M350.165 140.368 C 350.164 140.505,351.576 142.746,351.784 142.939 C 351.989 143.130,351.318 141.937,350.736 141.077 C 350.422 140.614,350.165 140.295,350.165 140.368 M285.246 141.365 C 284.489 141.712,284.942 141.712,285.740 141.366 C 286.086 141.215,286.244 141.095,286.089 141.100 C 285.934 141.104,285.555 141.224,285.246 141.365 M378.086 143.613 C 377.557 144.509,377.155 145.274,377.194 145.312 C 377.232 145.351,377.461 145.025,377.703 144.588 C 377.944 144.151,378.389 143.430,378.691 142.984 C 378.993 142.539,379.197 142.132,379.144 142.079 C 379.092 142.027,378.616 142.717,378.086 143.613 M280.586 142.537 C 280.536 142.618,280.784 142.651,281.137 142.610 C 281.491 142.569,281.780 142.502,281.780 142.462 C 281.780 142.321,280.677 142.390,280.586 142.537 M277.939 142.952 C 277.707 143.052,278.028 143.073,278.782 143.006 C 279.452 142.947,280.035 142.868,280.078 142.831 C 280.243 142.688,278.294 142.798,277.939 142.952 M275.368 143.276 C 275.809 143.315,276.483 143.315,276.867 143.274 C 277.250 143.234,276.890 143.202,276.066 143.202 C 275.241 143.203,274.927 143.236,275.368 143.276 M352.108 143.607 C 352.260 143.916,352.521 144.337,352.688 144.543 C 352.973 144.894,352.974 144.882,352.717 144.356 C 352.565 144.047,352.304 143.625,352.136 143.419 C 351.852 143.069,351.850 143.081,352.108 143.607 M302.918 144.793 C 301.709 145.742,301.569 145.932,302.587 145.245 C 303.305 144.760,304.103 144.038,303.864 144.090 C 303.825 144.098,303.400 144.415,302.918 144.793 M376.293 146.745 L 375.996 147.354 376.378 146.885 C 376.746 146.434,376.866 146.136,376.679 146.136 C 376.630 146.136,376.457 146.410,376.293 146.745 M299.672 146.974 C 299.260 147.228,298.981 147.438,299.053 147.441 C 299.215 147.449,300.515 146.688,300.515 146.586 C 300.515 146.464,300.457 146.490,299.672 146.974 M375.311 148.491 C 374.985 149.059,374.793 149.477,374.885 149.421 C 375.088 149.295,376.048 147.602,375.964 147.518 C 375.931 147.485,375.637 147.923,375.311 148.491 M354.665 148.150 C 354.667 148.227,354.841 148.501,355.051 148.759 L 355.432 149.227 355.135 148.618 C 354.853 148.040,354.655 147.843,354.665 148.150 M294.614 149.498 C 294.201 149.693,293.957 149.859,294.070 149.868 C 294.299 149.885,295.457 149.339,295.457 149.213 C 295.457 149.100,295.446 149.104,294.614 149.498 M355.410 149.366 C 355.410 149.561,356.225 151.004,356.296 150.933 C 356.334 150.895,356.183 150.538,355.961 150.139 C 355.527 149.361,355.410 149.197,355.410 149.366 M289.461 151.300 C 289.101 151.436,288.932 151.551,289.087 151.556 C 289.241 151.560,289.705 151.442,290.117 151.293 C 290.529 151.145,290.698 151.030,290.492 151.038 C 290.286 151.045,289.822 151.163,289.461 151.300 M287.869 151.756 C 287.350 151.888,287.343 151.901,287.775 151.919 C 288.033 151.929,288.370 151.856,288.525 151.756 C 288.843 151.550,288.679 151.550,287.869 151.756 M286.370 152.131 L 285.808 152.274 286.406 152.296 C 286.735 152.309,287.056 152.234,287.119 152.131 C 287.248 151.924,287.185 151.924,286.370 152.131 M373.059 152.791 C 372.835 153.252,372.691 153.630,372.739 153.630 C 372.866 153.630,373.623 152.108,373.538 152.023 C 373.499 151.984,373.283 152.330,373.059 152.791 M284.778 152.506 C 284.392 152.629,284.375 152.659,284.684 152.672 C 284.890 152.680,285.185 152.606,285.340 152.506 C 285.668 152.294,285.440 152.294,284.778 152.506 M282.717 152.881 L 282.248 153.031 282.717 153.046 C 282.974 153.055,283.311 152.980,283.466 152.881 C 283.824 152.649,283.439 152.649,282.717 152.881 M250.960 153.266 C 251.372 153.351,251.920 153.416,252.178 153.410 C 252.478 153.403,252.378 153.344,251.897 153.245 C 251.485 153.159,250.937 153.094,250.679 153.100 C 250.379 153.107,250.479 153.167,250.960 153.266 M280.375 153.255 C 279.870 153.384,279.860 153.399,280.281 153.402 C 280.539 153.404,280.960 153.338,281.218 153.255 C 281.847 153.054,281.167 153.054,280.375 153.255 M253.911 153.579 C 254.297 153.620,254.930 153.620,255.316 153.579 C 255.703 153.539,255.386 153.506,254.614 153.506 C 253.841 153.506,253.525 153.539,253.911 153.579 M276.628 153.664 C 276.077 153.770,271.632 153.819,265.855 153.784 C 260.445 153.751,256.609 153.790,257.330 153.871 C 259.051 154.065,276.835 153.898,278.407 153.673 L 279.625 153.500 278.595 153.492 C 278.028 153.488,277.143 153.565,276.628 153.664 M357.845 154.075 C 357.845 154.277,358.590 155.691,358.696 155.691 C 358.748 155.691,358.609 155.333,358.388 154.895 C 357.954 154.033,357.845 153.869,357.845 154.075 M371.000 156.949 C 370.778 157.431,370.626 157.854,370.661 157.890 C 370.696 157.925,370.909 157.562,371.134 157.083 C 371.359 156.604,371.512 156.180,371.474 156.142 C 371.435 156.103,371.222 156.467,371.000 156.949 M360.288 159.251 C 360.291 159.405,360.417 159.695,360.568 159.895 C 360.922 160.363,360.920 160.189,360.563 159.506 C 360.409 159.211,360.286 159.096,360.288 159.251 M368.823 161.714 C 368.045 163.455,368.032 163.656,368.795 162.155 C 369.162 161.434,369.438 160.772,369.408 160.684 C 369.379 160.595,369.115 161.059,368.823 161.714 M362.349 163.853 C 362.345 163.962,362.548 164.468,362.800 164.977 C 363.053 165.485,363.259 165.817,363.258 165.714 C 363.257 165.451,362.357 163.609,362.349 163.853 M366.985 166.080 C 366.811 166.549,366.706 166.932,366.751 166.932 C 366.882 166.932,367.415 165.571,367.355 165.391 C 367.325 165.301,367.159 165.611,366.985 166.080 M366.136 168.197 C 365.908 168.776,365.751 169.279,365.787 169.315 C 365.823 169.352,366.043 168.911,366.276 168.337 C 366.509 167.763,366.666 167.260,366.625 167.218 C 366.584 167.177,366.364 167.618,366.136 168.197 M364.413 168.923 C 364.397 169.253,364.953 170.492,365.117 170.492 C 365.363 170.492,365.714 170.060,365.714 169.757 C 365.714 169.565,365.612 169.617,365.403 169.916 L 365.092 170.360 364.758 169.536 C 364.574 169.083,364.419 168.807,364.413 168.923 " stroke="none" fill="#625b53" fill-rule="evenodd"></path><path id="path2" d="M3.747 93.677 L 3.747 183.607 200.000 183.607 L 396.253 183.607 396.253 93.677 L 396.253 3.747 200.000 3.747 L 3.747 3.747 3.747 93.677 M368.501 30.708 C 368.720 30.846,368.754 39.001,368.724 83.539 C 368.688 138.243,368.675 137.139,369.345 136.056 C 369.396 135.973,369.870 135.788,370.398 135.644 C 370.926 135.500,371.400 135.315,371.452 135.232 C 371.503 135.150,371.736 135.082,371.970 135.082 C 372.205 135.082,372.454 135.024,372.525 134.954 C 372.655 134.823,373.373 134.547,374.895 134.040 C 375.358 133.885,375.884 133.677,376.063 133.577 C 376.242 133.477,376.517 133.396,376.674 133.396 C 376.832 133.396,377.107 133.321,377.286 133.230 C 377.814 132.961,378.463 132.706,379.953 132.181 C 380.726 131.909,381.505 131.607,381.684 131.511 C 381.863 131.414,382.174 131.335,382.375 131.335 C 382.577 131.335,382.793 131.251,382.857 131.148 C 382.921 131.044,383.138 130.960,383.339 130.960 C 383.541 130.960,383.852 130.886,384.031 130.795 C 384.529 130.541,385.201 130.272,386.230 129.913 C 386.745 129.734,387.240 129.523,387.330 129.445 C 387.508 129.290,388.009 129.425,388.009 129.628 C 388.009 129.759,387.626 130.270,386.531 131.596 C 386.182 132.019,385.302 133.166,384.574 134.145 C 383.847 135.124,383.185 135.953,383.102 135.988 C 383.019 136.022,382.951 136.131,382.951 136.230 C 382.951 136.329,382.329 137.313,381.570 138.416 C 380.810 139.519,380.049 140.674,379.879 140.984 C 379.708 141.293,379.381 141.846,379.152 142.213 C 378.086 143.919,376.819 146.095,375.778 148.009 C 375.469 148.576,375.102 149.173,374.962 149.336 C 374.822 149.498,374.707 149.765,374.707 149.929 C 374.707 150.093,374.644 150.254,374.566 150.289 C 374.419 150.353,371.148 156.844,371.148 157.070 C 371.148 157.140,370.937 157.531,370.679 157.939 C 370.422 158.347,370.211 158.768,370.211 158.874 C 370.211 159.067,369.882 159.838,368.893 161.967 C 368.606 162.585,368.225 163.471,368.045 163.934 C 367.866 164.398,367.647 164.858,367.560 164.956 C 367.472 165.053,367.400 165.244,367.400 165.379 C 367.400 165.514,367.243 165.982,367.051 166.419 C 366.859 166.856,366.473 167.803,366.193 168.525 C 365.322 170.772,365.088 170.922,364.586 169.555 C 364.416 169.091,364.213 168.543,364.134 168.337 C 363.344 166.265,363.034 165.487,362.698 164.728 C 362.251 163.721,361.980 163.072,361.777 162.529 C 361.624 162.119,360.353 159.354,360.078 158.832 C 359.983 158.653,359.906 158.379,359.906 158.223 C 359.906 158.067,359.822 157.939,359.719 157.939 C 359.616 157.939,359.532 157.833,359.532 157.704 C 359.532 157.483,356.874 152.129,355.648 149.883 C 354.104 147.051,353.643 146.194,353.458 145.809 C 353.346 145.578,353.192 145.389,353.115 145.388 C 353.037 145.387,352.974 145.310,352.974 145.216 C 352.974 145.122,352.416 144.132,351.734 143.015 C 351.052 141.898,350.357 140.758,350.189 140.481 C 349.628 139.560,346.571 135.076,346.346 134.843 C 346.224 134.717,345.921 134.319,345.673 133.958 C 345.215 133.290,344.845 132.825,343.513 131.240 C 342.656 130.221,342.367 129.702,342.553 129.515 C 342.694 129.375,345.271 130.212,345.415 130.444 C 345.463 130.522,345.703 130.585,345.948 130.585 C 346.194 130.585,346.447 130.670,346.511 130.773 C 346.574 130.876,346.791 130.960,346.993 130.960 C 347.194 130.960,347.526 131.044,347.731 131.148 C 347.936 131.251,348.271 131.419,348.475 131.522 C 348.680 131.625,349.000 131.710,349.187 131.710 C 349.374 131.710,349.607 131.784,349.705 131.874 C 349.803 131.965,350.810 132.349,351.944 132.728 C 353.077 133.107,354.173 133.490,354.379 133.579 C 354.585 133.668,355.386 133.965,356.159 134.239 C 356.932 134.513,357.733 134.806,357.939 134.891 C 358.145 134.975,358.609 135.145,358.970 135.269 C 359.653 135.504,360.020 135.642,360.899 135.995 C 361.187 136.111,361.461 136.206,361.508 136.206 C 361.554 136.206,361.593 114.117,361.593 87.120 L 361.593 38.033 188.806 37.986 L 16.019 37.939 15.968 34.347 C 15.921 31.042,15.944 30.748,16.249 30.669 C 16.880 30.504,368.242 30.543,368.501 30.708 M276.721 68.493 C 279.040 68.639,281.653 68.842,282.529 68.942 C 283.405 69.043,284.585 69.177,285.152 69.240 C 285.719 69.304,286.263 69.432,286.361 69.525 C 286.459 69.619,286.855 69.696,287.242 69.696 C 287.628 69.696,288.139 69.770,288.375 69.861 C 288.612 69.953,289.438 70.178,290.211 70.362 C 290.984 70.546,291.742 70.758,291.897 70.833 C 292.052 70.909,292.557 71.073,293.021 71.197 C 293.485 71.322,294.075 71.510,294.333 71.616 C 294.590 71.721,294.970 71.871,295.176 71.950 C 301.128 74.224,307.421 78.842,310.843 83.444 C 311.294 84.051,311.891 84.852,312.170 85.224 C 312.449 85.597,312.681 85.969,312.686 86.051 C 312.690 86.133,312.971 86.639,313.310 87.175 C 314.053 88.349,314.706 89.702,315.499 91.710 C 315.825 92.534,316.170 93.355,316.266 93.534 C 316.362 93.713,316.440 94.024,316.440 94.225 C 316.440 94.427,316.525 94.644,316.628 94.707 C 316.731 94.771,316.815 95.066,316.815 95.363 C 316.815 95.660,316.899 95.955,317.002 96.019 C 317.105 96.082,317.190 96.420,317.190 96.768 C 317.190 97.117,317.274 97.454,317.377 97.518 C 317.480 97.581,317.564 98.033,317.564 98.522 C 317.564 99.010,317.641 99.490,317.736 99.588 C 318.648 100.536,318.664 117.230,317.754 119.251 C 317.662 119.457,317.539 119.984,317.481 120.422 C 317.244 122.230,317.142 122.724,316.983 122.823 C 316.890 122.879,316.815 123.211,316.815 123.560 C 316.815 123.908,316.731 124.245,316.628 124.309 C 316.525 124.373,316.440 124.632,316.440 124.885 C 316.440 125.138,316.361 125.491,316.265 125.670 C 316.168 125.849,315.863 126.628,315.588 127.400 C 314.229 131.211,312.316 134.834,310.197 137.610 C 309.804 138.126,309.160 138.970,308.767 139.485 C 306.347 142.660,301.574 146.337,297.049 148.514 C 296.328 148.861,295.414 149.311,295.017 149.514 C 294.621 149.717,294.178 149.883,294.031 149.883 C 293.885 149.883,293.598 149.967,293.393 150.070 C 293.189 150.173,292.854 150.342,292.649 150.445 C 292.444 150.548,292.124 150.632,291.937 150.632 C 291.750 150.632,291.517 150.706,291.419 150.796 C 291.321 150.885,290.735 151.104,290.117 151.281 C 289.499 151.458,288.799 151.680,288.563 151.773 C 288.326 151.867,287.942 151.944,287.710 151.944 C 287.478 151.944,287.208 152.019,287.110 152.112 C 287.012 152.204,286.595 152.327,286.183 152.383 C 285.770 152.440,284.970 152.579,284.403 152.691 C 282.381 153.092,279.617 153.514,277.002 153.820 C 274.703 154.090,257.890 153.973,254.520 153.663 C 251.254 153.364,249.106 153.031,248.949 152.801 C 248.688 152.418,248.778 70.740,249.040 70.407 C 249.174 70.238,249.716 70.057,250.304 69.985 C 250.871 69.916,251.883 69.780,252.553 69.683 C 254.948 69.335,257.174 69.109,259.110 69.016 C 260.192 68.965,261.157 68.844,261.255 68.747 C 261.353 68.650,262.491 68.561,263.785 68.548 C 265.078 68.535,267.358 68.465,268.852 68.393 C 270.347 68.321,271.780 68.254,272.037 68.244 C 272.295 68.234,274.403 68.346,276.721 68.493 M268.194 79.045 C 268.092 79.145,267.124 79.269,266.042 79.319 C 264.101 79.410,262.602 79.555,261.780 79.730 L 261.358 79.820 261.358 111.479 L 261.358 143.138 262.810 143.150 C 263.609 143.157,265.770 143.228,267.613 143.307 C 269.962 143.409,272.035 143.375,274.545 143.192 C 279.556 142.828,280.138 142.769,280.562 142.579 C 280.768 142.487,281.232 142.371,281.593 142.320 C 282.496 142.193,283.302 142.013,283.747 141.839 C 283.953 141.758,284.628 141.536,285.246 141.347 C 285.864 141.157,286.496 140.944,286.651 140.874 C 286.974 140.727,287.771 140.402,288.384 140.166 C 289.283 139.819,289.967 139.473,290.917 138.882 C 291.460 138.544,291.987 138.267,292.088 138.267 C 292.189 138.267,292.272 138.197,292.272 138.111 C 292.272 138.026,292.504 137.836,292.787 137.690 C 293.070 137.544,293.344 137.378,293.396 137.321 C 293.447 137.263,293.827 136.972,294.239 136.673 C 295.143 136.018,297.627 133.557,298.304 132.646 C 298.572 132.286,298.968 131.804,299.185 131.577 C 299.401 131.349,299.578 131.091,299.578 131.003 C 299.578 130.915,299.729 130.680,299.913 130.480 C 300.097 130.281,300.741 129.105,301.344 127.869 C 301.946 126.632,302.512 125.474,302.602 125.295 C 302.691 125.116,302.763 124.805,302.763 124.604 C 302.763 124.402,302.848 124.185,302.951 124.122 C 303.054 124.058,303.138 123.841,303.138 123.640 C 303.138 123.438,303.216 123.127,303.312 122.948 C 303.602 122.405,304.075 120.709,304.075 120.210 C 304.075 119.952,304.159 119.689,304.262 119.625 C 304.365 119.562,304.450 119.110,304.450 118.621 C 304.450 118.133,304.528 117.653,304.623 117.555 C 305.211 116.953,305.207 102.643,304.619 102.023 C 304.526 101.926,304.450 101.482,304.450 101.037 C 304.450 100.593,304.375 100.083,304.283 99.904 C 304.191 99.725,303.976 99.073,303.804 98.454 C 303.633 97.836,303.421 97.162,303.334 96.956 C 303.246 96.749,302.981 96.075,302.745 95.457 C 301.663 92.629,299.114 88.738,297.330 87.192 C 297.073 86.969,296.603 86.538,296.288 86.235 C 295.564 85.540,293.652 84.122,293.439 84.122 C 293.351 84.122,293.116 83.972,292.916 83.790 C 292.519 83.427,289.388 81.861,288.337 81.499 C 287.977 81.375,287.513 81.206,287.307 81.124 C 285.186 80.278,281.934 79.592,278.314 79.227 C 275.600 78.953,268.418 78.823,268.194 79.045 " stroke="none" fill="#040404" fill-rule="evenodd"></path><path id="path3" d="M361.685 87.119 C 361.685 114.169,361.706 125.234,361.733 111.710 C 361.760 98.185,361.760 76.054,361.733 62.529 C 361.706 49.005,361.685 60.070,361.685 87.119 M261.780 68.888 C 261.960 68.935,262.255 68.935,262.436 68.888 C 262.616 68.841,262.468 68.802,262.108 68.802 C 261.747 68.802,261.600 68.841,261.780 68.888 M268.993 78.824 C 269.328 78.866,269.876 78.866,270.211 78.824 C 270.546 78.782,270.272 78.748,269.602 78.748 C 268.932 78.748,268.658 78.782,268.993 78.824 M274.897 78.823 C 275.182 78.866,275.604 78.865,275.834 78.820 C 276.064 78.776,275.831 78.741,275.316 78.742 C 274.801 78.744,274.612 78.780,274.897 78.823 M307.529 140.562 L 306.979 141.171 307.588 140.621 C 308.155 140.108,308.283 139.953,308.138 139.953 C 308.106 139.953,307.832 140.227,307.529 140.562 M305.281 142.810 L 304.731 143.419 305.340 142.869 C 305.907 142.356,306.035 142.201,305.890 142.201 C 305.858 142.201,305.584 142.475,305.281 142.810 M264.122 143.458 C 264.354 143.502,264.733 143.502,264.965 143.458 C 265.197 143.413,265.007 143.377,264.543 143.377 C 264.080 143.377,263.890 143.413,264.122 143.458 " stroke="none" fill="#796959" fill-rule="evenodd"></path><path id="path4" d="M3.272 3.419 C 3.223 3.548,3.204 44.248,3.231 93.864 L 3.279 184.075 200.000 184.075 L 396.721 184.075 396.721 93.677 L 396.721 3.279 200.041 3.232 C 42.795 3.194,3.343 3.232,3.272 3.419 M396.534 93.677 L 396.534 183.888 200.000 183.888 L 3.466 183.888 3.418 93.864 C 3.392 44.351,3.410 3.735,3.459 3.606 C 3.530 3.419,42.945 3.382,200.041 3.419 L 396.534 3.466 396.534 93.677 M16.196 31.154 C 16.145 31.287,16.126 32.826,16.155 34.574 L 16.206 37.752 188.984 37.845 C 284.011 37.897,361.698 37.876,361.621 37.799 C 361.543 37.721,283.836 37.637,188.937 37.611 L 16.393 37.564 16.342 34.333 L 16.291 31.101 192.404 31.101 L 368.516 31.101 368.574 34.473 L 368.631 37.846 368.625 34.426 L 368.618 31.007 192.453 30.960 C 48.941 30.922,16.271 30.958,16.196 31.154 M271.993 68.517 C 272.226 68.561,272.563 68.560,272.742 68.513 C 272.921 68.466,272.731 68.429,272.319 68.431 C 271.906 68.433,271.760 68.472,271.993 68.517 M263.700 68.751 C 263.082 68.814,264.473 68.835,266.792 68.797 C 269.110 68.759,271.091 68.699,271.194 68.664 C 271.523 68.553,264.870 68.630,263.700 68.751 M273.365 68.640 C 273.407 68.678,274.960 68.747,276.815 68.794 C 278.670 68.840,279.724 68.818,279.157 68.744 C 278.097 68.605,273.225 68.517,273.365 68.640 M260.471 69.081 C 260.756 69.124,261.177 69.122,261.408 69.078 C 261.638 69.034,261.405 68.998,260.890 69.000 C 260.375 69.001,260.186 69.038,260.471 69.081 M280.986 69.079 C 281.219 69.123,281.556 69.122,281.735 69.075 C 281.914 69.028,281.724 68.991,281.311 68.993 C 280.899 68.995,280.753 69.034,280.986 69.079 M257.237 69.321 C 256.470 69.440,256.453 69.453,257.049 69.466 C 257.410 69.474,258.084 69.413,258.548 69.330 C 259.671 69.131,258.514 69.122,257.237 69.321 M282.998 69.321 C 283.307 69.400,283.813 69.464,284.122 69.464 L 284.684 69.464 284.122 69.321 C 283.813 69.242,283.307 69.178,282.998 69.178 L 282.436 69.178 282.998 69.321 M254.052 69.696 L 253.396 69.834 254.052 69.840 C 254.412 69.843,254.918 69.778,255.176 69.696 L 255.644 69.546 255.176 69.552 C 254.918 69.555,254.412 69.620,254.052 69.696 M285.527 69.696 C 285.785 69.778,286.164 69.848,286.370 69.851 L 286.745 69.857 286.370 69.696 C 286.164 69.607,285.785 69.537,285.527 69.540 L 285.059 69.546 285.527 69.696 M251.335 70.070 L 250.773 70.213 251.429 70.222 C 251.789 70.227,252.253 70.159,252.459 70.070 C 252.957 69.856,252.176 69.856,251.335 70.070 M287.494 70.070 C 287.700 70.159,288.037 70.231,288.244 70.231 L 288.618 70.231 288.244 70.070 C 288.037 69.982,287.700 69.909,287.494 69.909 L 287.119 69.909 287.494 70.070 M249.321 70.460 C 248.974 70.662,248.787 152.544,249.133 152.758 C 249.211 152.806,249.253 134.359,249.226 111.766 L 249.179 70.687 249.788 70.491 C 250.186 70.364,250.268 70.291,250.023 70.282 C 249.817 70.275,249.501 70.355,249.321 70.460 M289.180 70.445 C 289.386 70.534,289.681 70.606,289.836 70.606 C 290.013 70.606,289.979 70.546,289.742 70.445 C 289.536 70.356,289.241 70.284,289.087 70.284 C 288.910 70.284,288.944 70.343,289.180 70.445 M290.585 70.820 C 291.226 71.025,291.719 71.025,291.241 70.820 C 291.035 70.731,290.698 70.661,290.492 70.664 C 290.191 70.669,290.209 70.699,290.585 70.820 M293.583 71.756 C 293.738 71.856,293.991 71.938,294.145 71.938 C 294.395 71.938,294.395 71.918,294.145 71.756 C 293.991 71.657,293.738 71.575,293.583 71.575 C 293.333 71.575,293.333 71.595,293.583 71.756 M297.143 73.162 C 297.607 73.410,298.070 73.613,298.173 73.613 C 298.276 73.613,297.981 73.410,297.518 73.162 C 297.054 72.913,296.590 72.710,296.487 72.710 C 296.384 72.710,296.679 72.913,297.143 73.162 M300.515 74.820 C 300.515 74.913,302.388 76.066,302.539 76.066 C 302.608 76.066,302.227 75.770,301.691 75.410 C 300.777 74.794,300.515 74.663,300.515 74.820 M302.779 76.314 C 302.822 76.347,303.152 76.565,303.513 76.797 L 304.169 77.221 303.607 76.738 C 303.297 76.472,302.967 76.254,302.873 76.254 C 302.778 76.253,302.736 76.280,302.779 76.314 M305.761 78.595 C 306.111 78.956,306.439 79.251,306.490 79.251 C 306.542 79.251,306.298 78.956,305.948 78.595 C 305.599 78.234,305.271 77.939,305.219 77.939 C 305.168 77.939,305.412 78.234,305.761 78.595 M271.803 78.638 C 272.241 78.678,272.958 78.678,273.396 78.638 C 273.834 78.599,273.475 78.567,272.600 78.567 C 271.724 78.567,271.365 78.599,271.803 78.638 M265.948 78.876 L 265.199 79.010 265.855 79.018 C 266.215 79.023,266.974 78.962,267.541 78.884 L 268.571 78.741 267.635 78.741 C 267.119 78.742,266.361 78.802,265.948 78.876 M276.175 78.758 C 276.218 78.796,276.885 78.874,277.658 78.931 C 278.516 78.994,278.844 78.976,278.501 78.884 C 277.936 78.732,276.029 78.629,276.175 78.758 M262.670 79.260 C 262.366 79.364,262.597 79.382,263.326 79.312 C 263.944 79.252,264.485 79.172,264.528 79.133 C 264.679 78.997,263.132 79.103,262.670 79.260 M280.375 79.261 C 281.376 79.468,282.063 79.461,281.405 79.251 C 281.148 79.168,280.642 79.102,280.281 79.103 L 279.625 79.106 280.375 79.261 M307.738 80.365 C 309.713 82.536,310.507 83.493,311.005 84.304 C 311.098 84.455,311.220 84.534,311.276 84.478 C 311.412 84.341,309.536 82.085,308.019 80.559 C 307.051 79.586,306.992 79.545,307.738 80.365 M282.904 79.727 C 284.245 80.062,284.777 80.044,283.560 79.706 C 283.044 79.562,282.454 79.451,282.248 79.457 C 282.042 79.464,282.337 79.586,282.904 79.727 M284.871 80.187 C 285.431 80.428,285.899 80.428,285.527 80.187 C 285.372 80.087,285.077 80.010,284.871 80.016 L 284.496 80.026 284.871 80.187 M286.183 80.562 C 286.698 80.784,286.882 80.784,286.745 80.562 C 286.681 80.459,286.444 80.381,286.218 80.388 C 285.823 80.401,285.821 80.407,286.183 80.562 M289.321 81.608 C 289.521 81.808,292.359 83.160,292.430 83.089 C 292.505 83.014,291.049 82.258,289.939 81.795 C 289.532 81.626,289.254 81.541,289.321 81.608 M293.770 83.999 C 293.770 84.047,294.213 84.403,294.754 84.790 C 295.295 85.176,296.286 85.952,296.956 86.514 C 298.012 87.400,298.050 87.419,297.237 86.656 C 295.909 85.411,293.770 83.772,293.770 83.999 M312.968 87.213 C 313.257 87.728,313.579 88.234,313.686 88.337 C 313.792 88.440,313.643 88.103,313.355 87.588 C 313.067 87.073,312.744 86.567,312.637 86.464 C 312.531 86.361,312.680 86.698,312.968 87.213 M299.069 88.859 C 299.618 89.506,300.391 90.560,300.786 91.201 C 301.526 92.398,301.859 92.764,301.378 91.850 C 300.993 91.119,299.594 89.163,298.882 88.361 C 297.859 87.210,298.010 87.611,299.069 88.859 M314.568 90.314 C 314.567 90.474,314.642 90.684,314.733 90.782 C 314.825 90.880,315.090 91.489,315.322 92.136 C 315.554 92.782,315.785 93.270,315.836 93.220 C 315.886 93.169,315.730 92.640,315.490 92.044 C 314.896 90.572,314.569 89.959,314.568 90.314 M316.259 94.801 C 316.259 94.956,316.340 95.208,316.440 95.363 C 316.602 95.613,316.622 95.613,316.622 95.363 C 316.622 95.208,316.540 94.956,316.440 94.801 C 316.279 94.551,316.259 94.551,316.259 94.801 M316.654 96.112 C 316.654 96.267,316.726 96.562,316.815 96.768 C 316.916 97.004,316.976 97.039,316.976 96.862 C 316.976 96.707,316.904 96.412,316.815 96.206 C 316.713 95.970,316.654 95.935,316.654 96.112 M303.727 97.424 C 303.727 97.578,303.799 97.874,303.888 98.080 C 303.989 98.316,304.049 98.350,304.049 98.173 C 304.049 98.019,303.976 97.724,303.888 97.518 C 303.786 97.281,303.727 97.247,303.727 97.424 M317.027 97.424 C 317.022 97.578,317.134 98.169,317.275 98.735 C 317.417 99.302,317.538 99.597,317.545 99.391 C 317.552 99.185,317.440 98.595,317.297 98.080 C 317.153 97.564,317.032 97.269,317.027 97.424 M304.101 98.735 C 304.101 98.890,304.174 99.185,304.262 99.391 C 304.364 99.627,304.423 99.662,304.423 99.485 C 304.423 99.330,304.351 99.035,304.262 98.829 C 304.161 98.593,304.101 98.558,304.101 98.735 M317.609 100.328 C 317.609 100.637,317.673 101.143,317.752 101.452 L 317.895 102.014 317.895 101.452 C 317.895 101.143,317.830 100.637,317.752 100.328 L 317.609 99.766 317.609 100.328 M304.669 101.077 C 304.672 101.283,304.742 101.663,304.824 101.920 L 304.974 102.389 304.980 101.920 C 304.983 101.663,304.913 101.283,304.824 101.077 L 304.663 100.703 304.669 101.077 M317.981 103.232 C 317.976 103.696,318.038 104.496,318.118 105.012 L 318.264 105.948 318.272 105.105 C 318.277 104.642,318.215 103.841,318.135 103.326 L 317.989 102.389 317.981 103.232 M305.045 103.419 C 305.038 103.677,305.103 104.225,305.188 104.637 L 305.343 105.386 305.343 104.731 C 305.342 103.904,305.063 102.676,305.045 103.419 M305.386 109.602 C 305.386 111.285,305.431 112.618,305.485 112.563 C 305.615 112.433,305.616 106.771,305.486 106.642 C 305.431 106.587,305.386 107.919,305.386 109.602 M318.033 114.286 C 317.958 115.225,317.940 116.035,317.991 116.087 C 318.043 116.138,318.146 115.412,318.220 114.473 C 318.294 113.534,318.313 112.724,318.262 112.672 C 318.210 112.621,318.107 113.347,318.033 114.286 M305.113 115.187 C 305.036 115.837,305.016 116.414,305.070 116.468 C 305.202 116.599,305.449 114.565,305.340 114.252 C 305.293 114.116,305.190 114.537,305.113 115.187 M317.665 117.572 C 317.593 118.152,317.576 118.669,317.627 118.720 C 317.679 118.772,317.780 118.339,317.853 117.759 C 317.925 117.179,317.942 116.662,317.891 116.610 C 317.839 116.559,317.738 116.991,317.665 117.572 M304.741 117.950 C 304.671 118.326,304.655 118.675,304.707 118.727 C 304.758 118.778,304.858 118.513,304.928 118.137 C 304.999 117.761,305.015 117.411,304.963 117.360 C 304.911 117.308,304.812 117.574,304.741 117.950 M304.169 120.656 C 304.097 120.980,304.078 121.284,304.126 121.331 C 304.174 121.379,304.267 121.149,304.333 120.820 C 304.489 120.039,304.337 119.887,304.169 120.656 M317.106 120.760 C 317.036 121.136,317.016 121.481,317.061 121.527 C 317.107 121.573,317.202 121.302,317.273 120.926 C 317.343 120.550,317.364 120.205,317.318 120.159 C 317.272 120.114,317.177 120.384,317.106 120.760 M303.807 122.074 C 303.738 122.349,303.718 122.610,303.762 122.654 C 303.806 122.698,303.899 122.509,303.968 122.235 C 304.037 121.960,304.057 121.700,304.013 121.655 C 303.969 121.611,303.876 121.800,303.807 122.074 M316.756 122.226 C 316.685 122.410,316.633 122.701,316.640 122.872 C 316.647 123.079,316.712 123.032,316.832 122.733 C 316.932 122.484,316.984 122.193,316.948 122.086 C 316.913 121.980,316.826 122.043,316.756 122.226 M303.419 123.279 C 303.349 123.500,303.333 123.724,303.385 123.775 C 303.437 123.827,303.536 123.688,303.607 123.466 C 303.677 123.244,303.692 123.021,303.641 122.969 C 303.589 122.918,303.490 123.057,303.419 123.279 M316.347 123.841 C 316.276 124.062,316.261 124.286,316.312 124.337 C 316.364 124.389,316.464 124.250,316.534 124.028 C 316.604 123.806,316.620 123.583,316.568 123.531 C 316.517 123.480,316.417 123.619,316.347 123.841 M303.044 124.403 C 302.974 124.624,302.959 124.848,303.010 124.899 C 303.062 124.951,303.162 124.812,303.232 124.590 C 303.302 124.369,303.318 124.145,303.266 124.094 C 303.215 124.042,303.115 124.181,303.044 124.403 M315.972 125.152 C 315.902 125.374,315.886 125.597,315.938 125.649 C 315.989 125.700,316.089 125.561,316.159 125.340 C 316.230 125.118,316.245 124.894,316.193 124.843 C 316.142 124.791,316.042 124.931,315.972 125.152 M315.597 126.276 C 315.527 126.498,315.511 126.721,315.563 126.773 C 315.614 126.824,315.714 126.685,315.785 126.464 C 315.855 126.242,315.870 126.019,315.819 125.967 C 315.767 125.916,315.668 126.055,315.597 126.276 M301.679 127.689 C 301.247 128.561,300.933 129.274,300.983 129.274 C 301.108 129.274,302.616 126.254,302.533 126.170 C 302.496 126.133,302.111 126.817,301.679 127.689 M314.988 128.103 C 314.760 128.682,314.603 129.186,314.639 129.222 C 314.676 129.258,314.896 128.818,315.129 128.244 C 315.362 127.669,315.519 127.166,315.478 127.125 C 315.436 127.084,315.216 127.524,314.988 128.103 M386.932 129.858 C 386.597 129.955,386.323 130.064,386.323 130.101 C 386.323 130.274,387.533 130.046,387.595 129.861 C 387.634 129.744,387.638 129.656,387.603 129.666 C 387.569 129.675,387.267 129.762,386.932 129.858 M342.857 129.978 C 342.857 130.072,343.162 130.479,343.534 130.882 C 344.213 131.619,344.078 131.326,343.283 130.337 C 343.049 130.046,342.857 129.884,342.857 129.978 M300.278 130.259 C 300.063 130.817,298.123 133.214,296.603 134.797 C 295.164 136.296,295.308 136.299,296.852 134.801 C 298.151 133.539,300.650 130.284,300.463 130.096 C 300.414 130.047,300.331 130.120,300.278 130.259 M344.705 130.499 C 345.052 130.650,345.431 130.770,345.548 130.766 C 345.665 130.761,345.477 130.635,345.131 130.484 C 344.784 130.334,344.405 130.214,344.288 130.218 C 344.171 130.222,344.359 130.349,344.705 130.499 M384.637 130.687 C 384.070 130.931,383.698 131.134,383.809 131.139 C 383.920 131.144,384.510 130.940,385.120 130.687 C 385.730 130.434,386.103 130.230,385.948 130.235 C 385.794 130.240,385.204 130.443,384.637 130.687 M312.897 132.589 C 312.482 133.382,312.176 134.065,312.218 134.107 C 312.260 134.150,312.638 133.501,313.058 132.666 C 313.478 131.831,313.783 131.148,313.737 131.148 C 313.691 131.148,313.313 131.796,312.897 132.589 M385.702 132.088 C 385.021 133.050,385.151 133.048,385.926 132.084 C 386.257 131.672,386.461 131.337,386.379 131.339 C 386.297 131.341,385.992 131.678,385.702 132.088 M344.955 132.712 C 345.398 133.264,345.954 133.959,346.190 134.258 L 346.618 134.801 346.190 134.139 C 345.452 133.001,344.456 131.725,344.299 131.717 C 344.216 131.713,344.511 132.161,344.955 132.712 M380.234 132.285 C 379.822 132.483,379.696 132.593,379.953 132.529 C 380.658 132.354,381.585 131.928,381.265 131.926 C 381.110 131.925,380.646 132.087,380.234 132.285 M350.445 132.531 C 350.754 132.672,351.218 132.839,351.475 132.902 C 351.852 132.995,351.833 132.967,351.382 132.761 C 351.073 132.621,350.609 132.454,350.351 132.390 C 349.975 132.298,349.994 132.326,350.445 132.531 M378.021 133.055 C 377.422 133.264,376.973 133.475,377.022 133.525 C 377.114 133.617,379.391 132.839,379.391 132.715 C 379.391 132.601,379.160 132.659,378.021 133.055 M353.255 133.570 C 353.667 133.768,354.131 133.929,354.286 133.929 C 354.606 133.927,353.679 133.501,352.974 133.326 C 352.717 133.262,352.843 133.371,353.255 133.570 M383.767 134.660 C 383.028 135.591,381.974 137.143,382.081 137.143 C 382.128 137.143,382.483 136.700,382.869 136.159 C 383.256 135.618,383.780 134.902,384.033 134.567 C 384.673 133.722,384.451 133.800,383.767 134.660 M311.238 135.504 C 310.826 136.148,310.207 137.050,309.861 137.509 C 309.515 137.969,309.329 138.284,309.448 138.210 C 309.833 137.973,312.297 134.333,312.074 134.333 C 312.025 134.333,311.649 134.859,311.238 135.504 M355.785 134.520 C 355.939 134.620,356.192 134.702,356.347 134.702 C 356.596 134.702,356.596 134.681,356.347 134.520 C 356.192 134.420,355.939 134.338,355.785 134.338 C 355.535 134.338,355.535 134.358,355.785 134.520 M356.721 134.761 C 356.857 134.906,358.841 135.646,359.063 135.634 C 359.166 135.628,358.871 135.471,358.407 135.284 C 357.377 134.868,356.595 134.626,356.721 134.761 M372.740 134.995 C 372.431 135.137,372.304 135.253,372.459 135.254 C 372.614 135.255,372.951 135.136,373.208 134.988 C 373.801 134.650,373.484 134.654,372.740 134.995 M347.235 135.785 C 347.602 136.274,348.762 138.002,349.812 139.625 C 351.585 142.364,352.178 143.182,351.645 142.155 C 351.155 141.211,346.879 134.895,346.729 134.895 C 346.641 134.895,346.868 135.295,347.235 135.785 M380.881 138.749 C 380.557 139.219,380.329 139.642,380.374 139.687 C 380.420 139.733,380.719 139.347,381.040 138.831 C 381.770 137.657,381.668 137.604,380.881 138.749 M290.622 139.240 C 289.869 139.655,289.288 140.030,289.331 140.073 C 289.414 140.156,291.684 138.918,291.981 138.628 C 292.263 138.353,292.078 138.436,290.622 139.240 M306.578 141.315 C 305.533 142.369,304.166 143.611,303.541 144.075 C 302.916 144.539,302.400 144.987,302.396 145.071 C 302.379 145.417,306.259 142.003,307.733 140.375 C 309.125 138.836,308.654 139.219,306.578 141.315 M285.090 141.581 C 284.591 141.733,284.219 141.892,284.261 141.935 C 284.356 142.030,286.276 141.473,286.276 141.351 C 286.276 141.233,286.138 141.260,285.090 141.581 M282.342 142.389 C 281.965 142.509,281.947 142.540,282.248 142.544 C 282.454 142.547,282.792 142.477,282.998 142.389 C 283.475 142.184,282.983 142.184,282.342 142.389 M280.562 142.763 L 280.187 142.924 280.562 142.924 C 280.768 142.924,281.105 142.852,281.311 142.763 L 281.686 142.602 281.311 142.602 C 281.105 142.602,280.768 142.675,280.562 142.763 M378.224 142.998 C 378.074 143.230,377.849 143.630,377.724 143.888 C 377.405 144.545,377.983 143.843,378.380 143.091 C 378.707 142.470,378.606 142.409,378.224 142.998 M352.326 143.653 C 352.853 144.571,353.162 144.988,353.162 144.781 C 353.162 144.616,352.001 142.763,351.898 142.763 C 351.852 142.763,352.045 143.164,352.326 143.653 M278.220 143.138 L 277.564 143.276 278.220 143.288 C 278.581 143.294,279.044 143.227,279.251 143.138 L 279.625 142.977 279.251 142.989 C 279.044 142.995,278.581 143.062,278.220 143.138 M262.951 143.533 C 263.868 143.665,270.252 143.733,269.883 143.607 C 269.780 143.571,267.967 143.510,265.855 143.470 C 263.742 143.430,262.436 143.458,262.951 143.533 M273.536 143.513 L 271.569 143.627 273.536 143.653 C 274.618 143.667,275.841 143.609,276.253 143.524 L 277.002 143.369 276.253 143.384 C 275.841 143.392,274.618 143.450,273.536 143.513 M376.966 145.129 C 376.746 145.503,376.596 145.839,376.634 145.876 C 376.671 145.914,376.891 145.608,377.122 145.197 C 377.646 144.263,377.512 144.205,376.966 145.129 M353.540 145.714 C 353.543 145.792,353.716 146.066,353.926 146.323 L 354.308 146.792 354.011 146.183 C 353.729 145.604,353.531 145.408,353.540 145.714 M376.119 146.620 C 375.944 146.887,375.844 147.148,375.896 147.200 C 375.948 147.252,376.126 147.034,376.291 146.715 C 376.655 146.011,376.555 145.955,376.119 146.620 M299.532 146.805 C 298.831 147.185,298.874 147.343,299.578 146.979 C 299.888 146.819,300.141 146.648,300.141 146.599 C 300.141 146.479,300.120 146.486,299.532 146.805 M354.308 146.979 C 354.557 147.612,355.450 149.156,355.525 149.081 C 355.574 149.032,355.349 148.539,355.024 147.985 C 354.450 147.008,354.158 146.597,354.308 146.979 M297.143 148.103 C 296.267 148.556,295.615 148.932,295.695 148.937 C 295.894 148.950,298.829 147.465,298.829 147.352 C 298.829 147.225,298.908 147.189,297.143 148.103 M375.370 147.932 C 375.195 148.198,375.095 148.459,375.147 148.511 C 375.199 148.564,375.377 148.345,375.541 148.027 C 375.906 147.322,375.805 147.267,375.370 147.932 M374.353 149.810 C 374.034 150.400,373.805 150.916,373.845 150.956 C 373.885 150.996,374.179 150.546,374.499 149.956 C 374.819 149.365,375.048 148.849,375.008 148.809 C 374.968 148.769,374.673 149.220,374.353 149.810 M291.803 150.358 C 291.047 150.704,291.499 150.705,292.297 150.359 C 292.644 150.208,292.801 150.088,292.646 150.093 C 292.492 150.097,292.112 150.217,291.803 150.358 M356.551 151.198 C 356.881 151.818,357.181 152.296,357.217 152.260 C 357.298 152.179,356.165 150.070,356.041 150.070 C 355.991 150.070,356.220 150.578,356.551 151.198 M289.180 151.194 C 288.944 151.296,288.910 151.355,289.087 151.355 C 289.241 151.355,289.536 151.283,289.742 151.194 C 289.979 151.093,290.013 151.033,289.836 151.033 C 289.681 151.033,289.386 151.106,289.180 151.194 M286.276 151.944 C 285.918 152.175,286.304 152.175,287.026 151.944 L 287.494 151.794 287.026 151.778 C 286.768 151.769,286.431 151.844,286.276 151.944 M284.590 152.319 C 284.219 152.437,284.200 152.469,284.496 152.469 C 284.703 152.469,285.082 152.401,285.340 152.319 C 285.710 152.200,285.730 152.168,285.433 152.168 C 285.227 152.168,284.848 152.236,284.590 152.319 M281.967 152.787 C 281.297 152.916,280.960 153.029,281.218 153.036 C 281.475 153.044,282.234 152.938,282.904 152.800 C 283.574 152.663,283.911 152.551,283.653 152.551 C 283.396 152.551,282.637 152.657,281.967 152.787 M249.979 153.015 C 250.264 153.058,250.685 153.057,250.916 153.012 C 251.146 152.968,250.913 152.933,250.398 152.934 C 249.883 152.936,249.694 152.972,249.979 153.015 M252.553 153.263 C 253.119 153.341,253.920 153.403,254.333 153.399 C 255.056 153.393,255.050 153.388,254.145 153.247 C 253.630 153.166,252.829 153.105,252.365 153.111 L 251.522 153.121 252.553 153.263 M278.689 153.255 C 277.878 153.461,278.762 153.468,279.906 153.265 L 280.749 153.115 280.000 153.114 C 279.588 153.113,278.998 153.177,278.689 153.255 M257.237 153.637 C 257.906 153.712,259.382 153.770,260.515 153.766 L 262.576 153.758 260.890 153.620 C 259.963 153.544,258.487 153.486,257.611 153.491 L 256.019 153.500 257.237 153.637 M274.286 153.630 L 273.255 153.756 274.567 153.773 C 275.288 153.782,276.258 153.722,276.721 153.640 L 277.564 153.490 276.440 153.497 C 275.822 153.501,274.852 153.561,274.286 153.630 M358.799 155.597 C 358.799 155.700,359.002 156.164,359.251 156.628 C 359.499 157.091,359.702 157.386,359.702 157.283 C 359.702 157.180,359.499 156.717,359.251 156.253 C 359.002 155.789,358.799 155.494,358.799 155.597 M370.054 158.501 C 369.625 159.430,369.279 160.252,369.286 160.329 C 369.292 160.406,369.673 159.676,370.133 158.708 C 370.593 157.740,370.938 156.918,370.901 156.881 C 370.864 156.844,370.483 157.573,370.054 158.501 M360.484 159.157 C 360.484 159.260,360.646 159.639,360.843 160.000 C 361.041 160.361,361.202 160.571,361.202 160.468 C 361.202 160.365,361.041 159.986,360.843 159.625 C 360.646 159.265,360.484 159.054,360.484 159.157 M361.231 160.843 C 361.231 160.946,361.352 161.241,361.499 161.499 C 361.646 161.756,361.767 161.883,361.767 161.780 C 361.767 161.677,361.646 161.382,361.499 161.124 C 361.352 160.867,361.231 160.740,361.231 160.843 M367.431 164.411 C 367.117 165.100,367.177 165.247,367.516 164.620 C 367.675 164.328,367.769 164.054,367.727 164.011 C 367.684 163.968,367.551 164.148,367.431 164.411 M366.776 166.027 C 366.606 166.458,366.498 166.842,366.536 166.879 C 366.573 166.917,366.745 166.596,366.916 166.167 C 367.088 165.738,367.196 165.354,367.156 165.314 C 367.117 165.274,366.945 165.595,366.776 166.027 M363.322 165.808 C 363.682 166.790,364.085 167.687,364.141 167.631 C 364.233 167.539,363.581 165.857,363.382 165.676 C 363.293 165.594,363.265 165.653,363.322 165.808 M366.027 167.900 C 365.857 168.332,365.749 168.715,365.787 168.753 C 365.824 168.790,365.995 168.470,366.167 168.041 C 366.339 167.611,366.447 167.227,366.407 167.188 C 366.367 167.148,366.196 167.469,366.027 167.900 M365.542 169.166 C 365.534 169.312,365.387 169.586,365.217 169.774 C 365.042 169.968,364.998 170.117,365.117 170.117 C 365.389 170.117,365.765 169.412,365.648 169.123 C 365.587 168.975,365.552 168.990,365.542 169.166 " stroke="none" fill="#8c745c" fill-rule="evenodd"></path></g></svg>