<?xml version="1.0" encoding="UTF-8"?>
<svg id="Layer_2" data-name="Layer 2" xmlns="http://www.w3.org/2000/svg" viewBox="0 0 140.79 87.1">
  <defs>
    <style>
      .cls-1 {
        fill: none;
        stroke: #e57a25;
        stroke-width: 4px;
      }

      .cls-2 {
        fill: #e57a25;
        stroke-width: 0px;
      }
    </style>
  </defs>
  <g id="Layer_2-2" data-name="Layer_2">
    <g>
      <path class="cls-1" d="M1.7,75.64c5.15-8.35,9.01-8.88,10.61-8.79,1.89.1,3.41,1.19,10.61,8.96s7.94,9.08,10.22,9.12c1.96.04,3.32-1.18,10.8-9.12,7.02-7.46,8.24-8.95,10.42-8.96,1.77,0,3.16.98,10.42,8.96,6.88,7.57,7.99,9.27,10.22,9.29,2.37.02,3.53-1.89,10.61-9.46,7.44-7.96,8.92-8.82,10.61-8.79,2.14.03,3.32,1.47,10.42,9.12,6.81,7.34,8.18,8.66,10.22,8.79,3.02.2,5.66-2.94,10.8-8.96"/>
      <polygon class="cls-2" points="125.7 75.05 129 71.02 131.13 68.41 126.79 67.15 140.79 59.75 136.33 74.94 134.23 70.94 132.09 73.55 128.8 77.58 125.7 75.05"/>
    </g>
    <g>
      <path class="cls-1" d="M1.7,45.81c5.15-8.35,9.01-8.88,10.61-8.79,1.89.1,3.41,1.19,10.61,8.96s7.94,9.08,10.22,9.12c1.96.04,3.32-1.18,10.8-9.12,7.02-7.46,8.24-8.95,10.42-8.96,1.77,0,3.16.98,10.42,8.96,6.88,7.57,7.99,9.27,10.22,9.29,2.37.02,3.53-1.89,10.61-9.46,7.44-7.96,8.92-8.82,10.61-8.79,2.14.03,3.32,1.47,10.42,9.12,6.81,7.34,8.18,8.66,10.22,8.79,3.02.2,5.66-2.94,10.8-8.96"/>
      <polygon class="cls-2" points="125.7 45.22 129 41.19 131.13 38.58 126.79 37.32 140.79 29.92 136.33 45.11 134.23 41.11 132.09 43.72 128.8 47.75 125.7 45.22"/>
    </g>
    <g>
      <path class="cls-1" d="M1.7,15.89C6.85,7.54,10.71,7.01,12.31,7.1c1.89.1,3.41,1.19,10.61,8.96s7.94,9.08,10.22,9.12c1.96.04,3.32-1.18,10.8-9.12,7.02-7.46,8.24-8.95,10.42-8.96,1.77,0,3.16.98,10.42,8.96,6.88,7.57,7.99,9.27,10.22,9.29,2.37.02,3.53-1.89,10.61-9.46,7.44-7.96,8.92-8.82,10.61-8.79,2.14.03,3.32,1.47,10.42,9.12,6.81,7.34,8.18,8.66,10.22,8.79,3.02.2,5.66-2.94,10.8-8.96"/>
      <polygon class="cls-2" points="125.7 15.3 129 11.27 131.13 8.66 126.79 7.4 140.79 0 136.33 15.19 134.23 11.19 132.09 13.8 128.8 17.83 125.7 15.3"/>
    </g>
  </g>
</svg>